# xmcd
#
# Track frame offsets: 
#        150
#        11191
#        26294
#        37581
#        53606
#        70753
#        79836
#        91331
#        107746
#        120018
#        131914
#        144098
#        158786
#        176994
#        190510
#        205498
#        217900
#        227719
#        237964
#        251373
#        260479
#
# Disc length: 3610 seconds
#
# Revision: 2
# Processed by: cddbd v1.5.2PL0 Copyright (c) Steve Scherf et al.
# Submitted via: ExactAudioCopy v1.1
#
DISCID=0c0e1815
DTITLE=Varoius Artists - Hard-Headed Woman: A Celebration Of Wanda Jac
DTITLE=kson
DYEAR=2004
DGENRE=Country
TTITLE0=Carolyn Mark and The Room-Mates - Hot Dog, That Made Him Mad
TTITLE1=Nora O'Connor - Sticks 'N' Stones
TTITLE2=Asylum Street Spankers - Funnel Of Love
TTITLE3=Anna Fermin and The Trigger Gospel - The Box It Came In
TTITLE4=Kelly Hogan - Right Or Wrong
TTITLE5=Neko Case - Brown-Eyed Handsome Man
TTITLE6=Robbie Fulks - Tears At The Grand Ol' Opry
TTITLE7=Jesse Sykes and The Sweet Hereafter - Weary Blues From Waiting
TTITLE8=The Cornell Hurd Band - This Gun Don't care Who It Shoots
TTITLE9=Rosie Flores - In The Middle Of A Heartache
TTITLE10=Candye Kane - Rock Your Baby
TTITLE11=Trailer Bride - Fujiama Mama
TTITLE12=Jane Baxter Miller - One Day At A Time
TTITLE13=Wayne Hancock - Let's Have a Party
TTITLE14=Kristi Rose - This Should Go On Forever
TTITLE15=Laura Cantrell - Wasted
TTITLE16=Kim Lenz - Cool Lover
TTITLE17=Bottle Rockets w/Sheri Hurst - Let's Stop Kicking Our Hearts 
TTITLE17=Around
TTITLE18=The Ranch Girls and The Ragtime Wranglers - If You Don't Somebo
TTITLE18=dy Else Will
TTITLE19=Gina Lee and The Brisket Boys - Why I'm Walking
TTITLE20=Jesse Dayton - Both Sides Of The Line
EXTD=
EXTT0=
EXTT1=
EXTT2=
EXTT3=
EXTT4=
EXTT5=
EXTT6=
EXTT7=
EXTT8=
EXTT9=
EXTT10=
EXTT11=
EXTT12=
EXTT13=
EXTT14=
EXTT15=
EXTT16=
EXTT17=
EXTT18=
EXTT19=
EXTT20=
PLAYORDER=
